<svg xmlns="http://www.w3.org/2000/svg" width="396.853" height="149.187" xmlns:v="https://vecta.io/nano"><defs><clipPath id="A"><path d="M0 111.89h297.64V0H0z" transform="translate(-40.78 -65.324)"/></clipPath><clipPath id="B"><path d="M0 111.89h297.64V0H0z" transform="translate(-139.631 -95.568)"/></clipPath><clipPath id="C"><path d="M0 111.89h297.64V0H0z" transform="translate(-173.643 -75.599)"/></clipPath><clipPath id="D"><path d="M0 111.89h297.64V0H0z" transform="translate(-282.235 -3.068)"/></clipPath><clipPath id="E"><path d="M0 111.89h297.64V0H0z" transform="translate(-290.639 -9.558)"/></clipPath></defs><path d="M0 0c2.543.195 4.918.758 7.117 1.689s4.014 2.284 5.432 4.047c1.416 1.77 2.127 4.125 2.127 7.069 0 4.416-1.463 7.798-4.395 10.158S3.984 26.496.18 26.496c-5.276 0-9.258-1.738-11.94-5.211-2.689-3.472-3.98-7.855-3.883-13.135h-19.871c.198 5.28 1.153 10.1 2.862 14.45s4.113 8.076 7.201 11.189c3.082 3.113 6.781 5.516 11.088 7.223s9.107 2.554 14.394 2.554c4.112 0 8.225-.613 12.336-1.836s7.809-3.06 11.092-5.507 5.949-5.43 8.004-8.957 3.088-7.584 3.088-12.182c0-4.994-1.198-9.399-3.584-13.217S25-4.543 20.228-5.912v-.295c5.657-1.274 10.092-4.014 13.315-8.225s4.826-9.252 4.826-15.123c0-5.386-1.053-10.183-3.16-14.394s-4.924-7.733-8.451-10.576c-3.526-2.836-7.594-4.993-12.201-6.457S5.149-63.184.156-63.184c-5.783 0-11.046.834-15.803 2.497-4.751 1.671-8.796 4.097-12.126 7.289-3.334 3.187-5.903 7.08-7.715 11.683s-2.672 9.883-2.572 15.85h19.871c.095-2.74.537-5.356 1.326-7.85s1.916-4.648 3.388-6.457 3.311-3.256 5.522-4.332 4.836-1.609 7.877-1.609c4.713 0 8.691 1.437 11.93 4.316s4.861 6.807 4.861 11.785c0 3.908-.781 6.887-2.34 8.936s-3.514 3.537-5.863 4.469c-2.35.925-4.92 1.462-7.707 1.607s-5.455.225-7.994.225V0C-4.941-.195-2.545-.195 0 0" transform="matrix(1.333333 0 0 -1.333333 54.3728 62.0884)" clip-path="url(#A)" fill="#4296d8"/><path d="M0 0c11.621 0 23.131-4.701 31.576-12.9l2.254-2.186V2.551l-.564.396C23.607 9.721 12.957 13.012.705 13.012c-31.355 0-56.865-24.002-56.865-53.504 0-29.065 25.51-52.709 56.865-52.709 11.443 0 22.998 3.57 32.545 10.051l.58.396v17.582l-2.238-2.102C22.856-75.483 11.441-80.19.283-80.19c-22.721 0-41.916 18.362-41.916 40.096S-22.568 0 0 0" transform="matrix(1.333333 0 0 -1.333333 186.17493 21.7628)" clip-path="url(#B)" fill="#fff"/><path d="M0 0v-40.992l17.934 21.349z" transform="matrix(1.333333 0 0 -1.333333 231.52373 48.387733)" clip-path="url(#C)" fill="#4296d8"/><g fill="#fff"><path d="M0 0l-42.195 51.535 42.187 51.399h-22.379L-53.33 65.141l-30.941 37.793h-22.377l42.187-51.399L-106.658 0H-84.5l31.17 37.969L-22.156 0z" transform="matrix(1.333333 0 0 -1.333333 376.3128 145.09627)" clip-path="url(#D)"/><path d="M0 0c.783 0 2.158-.148 2.158.857 0 .651-.857.769-1.537.769h-1.685V0zm2.956-3.799H1.893L0-.887h-1.064v-2.912h-.887v6.312h2.75c1.137 0 2.246-.31 2.246-1.67 0-1.241-.872-1.7-1.995-1.73zM5.114-.68c0 2.72-2.262 4.878-4.907 4.878S-4.7 2.04-4.7-.68-2.439-5.558.207-5.558 5.114-3.4 5.114-.68m-10.701 0c0 3.207 2.558 5.765 5.794 5.765A5.74 5.74 0 0 0 6.001-.68c0-3.207-2.557-5.764-5.794-5.764S-5.587-3.887-5.587-.68" transform="matrix(1.333333 0 0 -1.333333 387.5188 136.44253)" clip-path="url(#E)"/></g></svg>