<svg xmlns="http://www.w3.org/2000/svg" viewBox="0 0 662.95 127.81" xmlns:v="https://vecta.io/nano"><path d="M204.81 102.56l-4.49-13.48h-29.96l-4.49 13.48h-16.05l26.11-74.89h18.4l26.32 74.89h-15.84zm-29.74-27.38h20.54l-10.27-30.6-10.27 30.6zm52.42 27.38v-78.1h13.91v78.1h-13.91zm85.6-54.99c6.21 0 10.91 1.93 14.55 5.99s5.56 9.42 5.56 16.05v32.95h-13.69v-32.1c0-3.21-.86-5.78-2.35-7.49-1.5-1.71-3.85-2.57-6.63-2.57-3.21 0-5.56 1.07-7.28 3.21-1.71 2.14-2.57 5.14-2.57 8.99v29.96h-13.69v-32.1c0-3.21-.86-5.78-2.35-7.49-1.5-1.71-3.85-2.57-6.63-2.57-3 0-5.56 1.07-7.49 3.21-1.71 2.14-2.57 5.14-2.57 8.99v29.96h-13.69v-53.5h13.69v5.56c3.21-4.71 8.13-7.28 14.98-7.28s11.34 2.57 14.55 7.7c3.21-4.92 8.56-7.49 15.62-7.49h0v.02zm72.54 1.5h13.69v53.5h-13.69v-6.42c-4.07 5.14-10.06 7.92-17.55 7.92-7.06 0-13.27-2.78-18.4-8.13-5.14-5.56-7.7-12.2-7.7-20.11s2.57-14.55 7.7-20.11c5.14-5.56 11.34-8.35 18.4-8.35 7.49 0 13.27 2.57 17.55 7.92v-6.21h0zm-25.47 37.66c2.78 2.78 6.21 4.28 10.49 4.28s7.92-1.28 10.7-4.28c2.78-2.78 4.28-6.42 4.28-10.91s-1.5-8.13-4.28-10.7c-2.78-2.78-6.42-4.28-10.7-4.28s-7.7 1.5-10.49 4.28c-2.78 2.78-4.07 6.42-4.07 10.7s1.28 8.13 4.07 10.91zm67.19 1.71h28.46v14.12h-43.22V27.67h14.76v60.77zm43.23-45.79c-2.35 0-4.28-.86-5.99-2.35-1.71-1.71-2.57-3.64-2.57-5.99s.86-4.28 2.57-5.99 3.64-2.57 5.99-2.57 4.28.86 5.99 2.57 2.57 3.64 2.57 5.99-.86 4.28-2.57 5.99c-1.71 1.5-3.64 2.35-5.99 2.35zm-6.85 59.91v-53.5h13.91v53.5h-13.91zm56.06-54.99c5.78 0 10.7 1.93 14.55 5.99 3.85 3.85 5.78 9.42 5.78 16.26v32.74h-13.69V71.32c0-3.64-1.07-6.21-3-8.13s-4.49-3-7.7-3c-3.64 0-6.42 1.07-8.56 3.42s-3.21 5.56-3.21 10.06v28.89h-13.69v-53.5h13.69v5.99c3.42-4.92 8.56-7.49 15.83-7.49h0zm67.41 1.5h13.91v53.5H587.2v-5.99c-3.42 4.92-8.56 7.49-15.83 7.49-5.78 0-10.7-1.93-14.55-5.99-3.85-3.85-5.56-9.42-5.56-16.26V49.08h13.91v31.03c0 3.64.86 6.42 2.78 8.35s4.49 2.78 7.7 2.78c3.64 0 6.42-1.07 8.56-3.21s3.21-5.56 3.21-10.06V49.08h-.22zm75.75 53.49H646.9L635.34 86.3l-11.77 16.26h-15.83l19.47-27.39-18.83-26.11h15.83l10.91 14.98 10.7-14.98h15.83l-18.83 26.11 20.11 27.39h.02z" fill="#fff"/><path d="M120.07,72.18c5.56-.43,10.06,3.21,10.49,8.77.43,5.78-3.64,10.49-9.2,10.91-5.35.43-10.06-3.64-10.49-8.99-.43-5.78,3.42-10.06,9.2-10.7h0Z" fill="#86da2f"/><path d="M52.46,117.76c0-5.56,4.28-9.84,9.42-9.84s10.06,4.71,10.06,10.06-4.28,9.63-9.2,9.84c-6.21,0-10.27-3.85-10.27-10.06h0Z" fill="#24c2ff"/><path d="M67.65,55.27c-.86.43-1.28-.21-1.5-.86-7.92-14.76-5.56-33.38,8.35-44.51,3.64-3,10.49-3.64,13.48-.64,1.28,1.07,1.5,2.35,1.71,3.85.43,3.21,1.07,6.42,3.21,8.99,2.35,2.78,5.35,3.85,8.77,3.64,3,0,5.99-.43,7.92,3,1.07,1.93.64,9.42-1.07,10.91-.86.64-1.5.21-2.14,0-4.92-1.93-10.06-1.93-15.19-1.07-1.71.21-2.57-.21-2.57-2.14-.21-3.21-.86-6.21-2.57-8.99-3.21-5.78-9.2-5.99-13.05-.64-3.21,4.28-4.07,9.42-4.92,14.55-.86,4.49-.64,9.2-.43,13.91,0,0-.21,0,0,0Z" fill="#ffcb12"/><path d="M73,58.48c-.43-.64-.21-1.28.43-1.71,12.2-11.13,30.39-13.27,44.51-2.35,3.64,3,5.99,9.2,4.07,12.84-.86,1.5-1.93,2.14-3.21,2.57-3,1.28-5.78,2.57-7.7,5.35-1.93,2.78-2.35,5.99-1.5,9.42.64,2.78,1.71,5.78-1.07,8.35-1.5,1.5-8.77,2.78-10.7,1.5-.86-.64-.64-1.28-.43-2.14.64-5.35-.64-10.27-2.57-14.98-.64-1.71-.43-2.57,1.28-3,3-.86,5.78-2.35,7.92-4.49,4.71-4.49,3.64-10.27-2.57-12.84-4.92-2.14-10.06-1.71-14.98-1.28-4.71.21-9.2,1.5-13.48,2.78v-.02Z" fill="#86da2f"/><path d="M70.22,64.05c.64-.64,1.07-.43,1.71,0,14.12,8.56,21.4,25.46,14.98,41.94-1.71,4.28-7.28,8.56-11.34,7.49-1.71-.43-2.57-1.28-3.42-2.35-1.93-2.57-4.07-4.92-7.28-5.99-3.42-1.07-6.42-.43-9.42,1.28-2.57,1.5-5.14,3.42-8.35,1.5-1.93-1.07-5.14-7.7-4.49-9.84.43-.86,1.28-.86,2.14-.86,5.35-.86,9.63-3.42,13.69-6.85,1.28-1.07,2.35-1.07,3.42.43,1.71,2.57,3.85,4.71,6.63,6.21,5.56,3.21,10.91.43,11.56-5.99.64-5.35-1.28-10.06-3-14.76-1.93-4.28-4.28-8.35-6.85-12.2h.02Z" fill="#24c2ff"/><path d="M63.37,65.33c-.86,4.28-2.78,8.35-5.35,11.98-7.7,11.56-18.83,16.26-32.53,14.98-4.92-.43-8.99-4.49-9.42-8.56-.21-1.71.21-3,1.28-4.28,1.5-1.93,2.78-3.64,3.42-5.99,1.28-4.71-.43-8.56-3.85-11.98-4.71-4.71-4.07-8.99,1.5-12.41.64-.43,1.5-.86,2.35-1.28,1.28-.64,2.35-.64,2.78.86,1.93,4.92,5.78,8.56,10.06,11.56,1.5,1.28,1.5,2.14.21,3.64-2.57,2.78-4.07,6.21-4.28,10.06-.43,4.71,2.35,7.7,7.06,7.7,3,0,5.78-1.07,8.35-2.35,6.63-3.42,11.77-8.35,16.69-13.48.64-.21.86-.64,1.71-.43l.02-.02Z" fill="#0069da"/><path d="M28.28,20.4c.43,0,1.5.21,2.57.43,7.92,1.5,12.84-1.28,15.41-8.77,1.71-4.92,5.35-6.42,10.06-3.85.21,0,.21.21.43.21,4.92,2.78,4.92,3.21,1.93,7.49-2.57,3.42-3.85,7.28-4.49,11.34-.43,2.35-1.28,2.78-3.42,1.93-3.42-1.28-7.06-1.28-10.7,0-4.07,1.28-5.78,4.92-4.49,8.99,1.71,5.35,6.42,7.7,10.49,10.49s8.77,4.28,13.27,6.21c.64.21,1.71.21,1.5,1.28-.21.64-1.07.64-1.93.64-9.63.43-18.83-1.07-26.32-7.49-7.06-5.78-12.2-12.84-11.34-22.68.64-3.21,3-5.56,7.06-6.21h-.03Z" fill="#ff4649"/><path d="M10.73 80.52C5.59 81.16.46 76.88.03 71.53-.4 66.39 3.88 61.26 8.8 60.83c5.56-.64 10.7 3.21 11.13 8.35.21 4.92-3 10.91-9.2 11.34z" fill="#0069da"/><path d="M100.6,4.35c5.35-.43,10.49,3.85,10.91,9.2.43,5.14-3.85,10.06-8.99,10.49-5.56.43-10.49-3.64-10.91-8.99-.43-5.35,3.42-10.27,8.99-10.7Z" fill="#ffcb12"/><path d="M44.75,8.41c.64,5.56-3.21,10.27-8.99,11.13-4.92.64-10.06-3.42-10.7-8.13C24.42,5.2,27.85.71,33.62.07c5.35-.64,10.49,3.42,11.13,8.35h0Z" fill="#ff4649"/></svg>