<svg xmlns="http://www.w3.org/2000/svg" viewBox="0 0 68.466 68.466" xmlns:v="https://vecta.io/nano"><path d="M28.854 31.734l2.479 2.445-2.479 2.5H11.41v8.2L.778 34.194 11.41 23.709v8.025z" fill="#932279"/><path d="M36.736 28.854l-2.445 2.479-2.5-2.479V11.41h-8.185L34.272.778 44.757 11.41h-8.021z" fill="#efa724"/><path d="M39.612 36.736l-2.479-2.445 2.479-2.5h17.43v-8.185l10.632 10.666-10.632 10.485v-8.021z" fill="#262577"/><path d="M31.733 39.613l2.445-2.479 2.445 2.479v17.43h8.2L34.194 67.689l-10.486-10.63h8.025zm-20.95-28.854h21.18v21.2h-21.18z" fill="#9ccd2a"/><path d="M10.025 10.025h22.7v22.7h-22.7zm1.516 21.18h19.664V11.541H11.541z" fill="#fff"/><path d="M36.502 10.783h21.2v21.18h-21.2z" fill="#932279"/><path d="M35.744 10.025h22.7v22.7h-22.7zm1.516 21.18h19.664V11.541H37.26z" fill="#fff"/><path d="M36.502 36.502h21.2v21.2h-21.2z" fill="#efa724"/><path d="M35.744 35.744h22.7v22.7h-22.7zm1.516 21.18h19.664V37.26H37.26z" fill="#fff"/><path d="M10.783 36.502h21.18v21.2h-21.18z" fill="#262577"/><g fill="#fff"><path d="M10.025 35.744h22.7v22.7h-22.7zm1.516 21.18h19.664V37.26H11.541z"/><path d="M16.046 50.279L0 34.233l16.046-16.045L32.1 34.233zm-13.9-16.046l13.9 13.908 13.908-13.908-13.908-13.908zM34.233 32.1L18.188 16.046 34.233 0l16.046 16.046zM20.325 16.046l13.908 13.908 13.908-13.908-13.908-13.9zm32.1 34.233l-16.05-16.046 16.046-16.045 16.045 16.045zM38.512 34.233l13.909 13.908 13.9-13.908-13.9-13.908zm-4.279 34.233L18.188 52.421l16.045-16.046 16.046 16.046zM20.325 52.421l13.908 13.9 13.908-13.9-13.908-13.909z"/></g></svg>