<svg xmlns="http://www.w3.org/2000/svg" viewBox="0 0 607.3 170.56" xmlns:v="https://vecta.io/nano"><g fill="#fff"><path d="M-25.22-26.22h658v222h-658z" fill-opacity="0"/><path d="M261.57 125.55h-34.46a36.46 36.46 0 0 1-10.37-1.52c-6.62-2.1-11.86-6.92-15.72-14.47-3.49-6.85-5.24-14.82-5.24-23.93s1.56-16.57 4.68-23.34c3.42-7.47 8.29-12.57 14.61-15.29 4.91-2.1 9.92-3.15 15.05-3.15h31.22v15.64h-32.45c-5.28 0-9.11 3-11.49 8.99-1.86 4.67-2.79 10.78-2.79 18.32 0 6.38 1.19 11.79 3.57 16.22 2.75 5.21 6.62 7.82 11.6 7.82l31.78-.12v14.82m57.39.36h-27.21c-6.62 0-12.38-2.96-17.28-8.87-4.83-5.99-7.25-12.88-7.25-20.66 0-8.48 2.64-15.8 7.92-21.94 5.35-6.22 11.3-9.34 17.84-9.34h25.87v12.49h-18.96c-2.38 0-4.42.23-6.13.7-1.64.39-3.16 1.21-4.57 2.45-2.6 2.33-3.9 5.49-3.9 9.45h33.45v12.6h-33.34c0 1.87.19 3.46.56 4.79.45 1.24 1.3 2.53 2.56 3.85a10.07 10.07 0 0 0 4.46 2.57c1.78.39 3.94.58 6.47.58h19.51v11.32m63.59-.34h-15.5v-39.8c0-1.01-.22-1.91-.67-2.68-.45-.86-1.08-1.67-1.9-2.45-1.49-1.32-3.2-1.98-5.13-1.98h-15.16v46.92h-15.5V65.1h29.66c5.28 0 9.11.31 11.49.93 3.72.93 6.69 3 8.92 6.19 2.53 3.73 3.79 7.82 3.79 12.25v41.08m44.51-47.86H412v27.43c0 2.49.82 4.55 2.45 6.19 1.86 1.63 4.31 2.45 7.36 2.45h4.57v11.79H412c-4.31 0-7.99-1.63-11.04-4.9-1.78-1.95-2.94-4.09-3.46-6.42s-.78-5.1-.78-8.29V77.7h-9.81V65.1h9.81V43.86H412V65.1h15.05v12.6m91 6.88c0 15.87-4.2 27.23-12.6 34.08-6.84 5.52-16.8 8.29-29.88 8.29-14.5 0-25.2-3.19-32.11-9.57-7.58-7-11.37-18.25-11.37-33.73 0-12.68 3.38-22.56 10.15-29.64 7.36-7.7 18.36-11.55 33.01-11.55 16.13 0 27.5 3.7 34.12 11.09 5.8 6.54 8.7 16.88 8.7 31.05m-19.87-.49c0-8.01-1.82-14.39-5.46-19.14-4.09-5.29-10.15-7.94-18.18-7.94-7.88 0-13.83 2.84-17.84 8.52-3.35 4.75-5.02 10.93-5.02 18.56 0 8.79 1.34 15.29 4.01 19.49 3.72 5.84 10.59 8.75 20.63 8.75 8.47 0 14.42-2.84 17.84-8.52 2.68-4.44 4.01-11.01 4.01-19.72m109.11 16.11c0 7.16-2.27 13.19-6.8 18.09s-10.3 7.35-17.28 7.35l-55.2-.12v-14.71h45.49c3.05 0 5.61-.74 7.69-2.22 2.38-1.71 3.57-4.05 3.57-7 0-6.92-4.68-10.39-14.05-10.39h-22.97c-6.62 0-12.41-2.14-17.39-6.42s-7.47-9.73-7.47-16.34c0-7.31 2.42-13.23 7.25-17.74 4.91-4.59 11.34-6.89 19.29-6.89h52.74v14.01h-46.5c-2.08 0-4.2.93-6.36 2.8-2.08 1.79-3.12 3.93-3.12 6.42 0 2.8 1 5.17 3.01 7.12 2.08 1.87 4.57 2.8 7.47 2.8h25.31c7.88 0 14.05 2.14 18.51 6.42 4.53 4.2 6.8 9.8 6.8 16.81"/></g><g fill-rule="evenodd"><path d="M71.84,79.05l6.17,6.13-6.17,6.13H28.42v20.44L1.94,85.19l26.48-26.12v19.99h43.43Z" fill="#932279"/><path d="M91.51 71.84l-6.13 6.17-6.13-6.17V28.42H58.81L85.37 1.94l26.12 26.48H91.5v43.43z" fill="#efa724"/><path d="M98.72 91.51l-6.17-6.13 6.17-6.13h43.43V58.81l26.48 26.57-26.48 26.12V91.51H98.72z" fill="#262577"/><path d="M79.05 98.72l6.13-6.17 6.13 6.17v43.43h20.44l-26.57 26.48-26.12-26.48h19.99V98.72z" fill="#9ccd2a"/></g><g stroke="#fff" stroke-miterlimit="4.25" stroke-width="3.77"><path d="M26.86,26.86h52.76v52.76H26.86V26.86Z" fill="#9ccd2a"/><path d="M90.93 26.86h52.76v52.76H90.93V26.86z" fill="#932279"/><path d="M90.93 90.93h52.76v52.76H90.93V90.93z" fill="#efa724"/><path d="M26.86 90.93h52.76v52.76H26.86V90.93z" fill="#262577"/><path d="M2.67 85.28l37.31-37.31 37.31 37.31-37.31 37.31L2.67 85.28zm45.3-45.3L85.28 2.66l37.31 37.31-37.31 37.31-37.31-37.31zm45.31 45.3l37.31-37.31 37.31 37.31-37.31 37.31-37.31-37.31zm-45.31 45.31l37.31-37.31 37.31 37.31-37.31 37.31-37.31-37.31z" fill="none"/></g></svg>