<svg xmlns="http://www.w3.org/2000/svg" viewBox="0 0 3925.79 1486.87" xmlns:v="https://vecta.io/nano"><g fill="#d70751"><path d="M796.24 812.21c-24.8.6 4.72 12.99 37.19 17.71 8.85-7.08 17.12-14.17 24.2-20.66-20.07 4.72-40.73 4.72-61.39 2.95m133.4-33.05c14.76-20.66 25.38-42.5 29.51-65.52-3.54 16.53-12.4 30.69-20.66 45.45-46.63 28.92-4.13-17.12 0-34.83-50.17 62.57-7.08 37.19-8.85 54.89m48.99-128.08c2.95-44.86-8.85-30.69-12.99-13.58 4.72 2.95 8.26 31.87 12.99 13.58M702.39 40.74c12.99 2.36 28.92 4.13 26.56 7.08 14.17-2.95 17.71-5.9-26.56-7.08m26.56 7.67l-9.44 1.77 8.85-.6.6-1.18M1053 635.13c1.77 40.14-11.81 59.62-23.6 93.85l-21.25 10.62c-17.71 34.23 1.77 21.84-10.62 48.99-27.15 24.2-83.23 76.14-100.93 80.87-12.99 0 8.85-15.35 11.81-21.25-36.6 25.38-29.51 37.78-85.59 53.12l-1.77-3.54c-138.12 64.93-330.55-63.76-327.61-239.65-1.18 11.22-4.13 8.26-7.08 12.99-7.08-90.3 41.9-181.2 124.54-218.4 80.87-40.14 175.31-23.6 233.15 30.1-31.87-41.32-95.03-85.59-169.99-81.46-73.19 1.18-142.25 47.8-164.68 98.57-37.78 23.6-41.9 91.5-58.44 103.89-21.84 161.73 41.32 231.97 148.75 314.02 17.12 11.22 4.72 12.99 7.08 21.84-35.42-16.53-68.47-41.9-95.03-72.6 14.17 20.66 29.51 41.32 49.58 57.26-33.65-11.22-78.51-81.46-91.5-84.41 57.85 103.89 235.51 182.4 328.18 143.43-43.1 1.77-97.39.6-145.79-17.12-20.07-10.62-47.8-31.87-43.1-36.01 126.91 47.22 257.35 36.01 367.14-51.94 27.74-21.84 58.44-58.44 67.3-59.03-12.99 20.07 2.36 9.44-7.67 27.15 27.74-44.86-11.81-18.3 28.92-77.32l15.35 20.66c-5.9-37.19 46.04-82.64 40.73-141.07 11.81-17.71 12.99 19.48.6 60.8 17.71-46.04 4.72-53.12 8.85-91.5 4.72 12.99 11.21 26.56 14.76 39.55-11.21-44.27 11.81-74.96 17.12-100.34-5.9-2.36-17.71 19.48-20.07-33.05.6-23.02 6.49-11.8 8.85-17.71-4.72-2.36-15.94-20.07-23.02-53.71 5.31-7.67 13.58 20.66 20.66 21.25-4.72-26.56-12.4-46.63-12.4-67.3-20.66-43.1-7.08 5.9-24.2-18.3-21.84-68.47 18.3-15.94 20.66-46.63 33.06 47.8 51.94 122.77 60.8 153.47-6.49-37.78-17.12-74.37-30.69-109.2 10.03 4.13-15.94-77.32 12.99-23.6-31.28-115.1-134-223.12-228.43-273.3 11.81 10.62 25.97 23.6 20.66 25.97-47.22-27.74-38.96-30.1-45.45-41.9-38.37-15.35-40.73 1.18-66.1 0-72.01-38.37-86.18-34.24-152.29-58.44l2.95 14.17c-47.8-15.94-55.48 5.9-107.43 0-2.95-2.36 16.53-8.85 33.05-11.21-46.04 5.9-44.27-8.85-89.13 1.77C554.84 11.81 566.64 6.49 578.45 0c-37.78 2.36-90.3 21.84-73.78 4.13-61.39 27.74-170.59 66.1-231.97 123.37l-1.77-12.99c-28.32 33.65-122.18 100.94-129.85 144.61l-7.67 1.77c-14.76 24.8-24.2 52.53-35.42 78.51-18.89 32.46-27.74 12.39-25.38 17.71C34.82 433.25 16.53 497.59 0 550.12c11.21 17.12 0 103.3 4.72 172.36-18.89 341.17 239.06 672.31 521.8 748.45 41.32 14.76 102.71 14.17 155.24 15.94-61.98-17.71-69.65-9.44-129.86-30.1-43.1-20.66-53.12-43.68-83.82-70.24l12.4 21.25c-60.21-21.25-34.83-26.56-83.82-41.9l12.99-17.12c-19.48-1.77-51.94-33.06-60.8-50.17l-21.25.6c-25.38-31.87-39.55-54.3-38.37-72.01l-9.44 10.62c-7.67-13.58-94.44-118.64-49.58-94.44-8.26-7.67-19.48-12.4-31.28-34.23l8.85-10.62c-21.84-27.74-39.55-63.75-38.37-75.55 11.8 15.35 19.48 18.3 27.74 21.25-54.89-135.76-57.85-7.67-99.16-138.12l8.85-.6c-6.49-10.03-10.62-21.25-15.94-31.87l3.54-37.78c-39.55-45.45-11.21-193.02-5.31-274.47 4.13-33.05 33.05-67.88 54.89-123.36l-13.58-2.36c25.38-44.86 146.39-179.44 201.87-172.36 27.15-34.23-5.31 0-10.62-8.85 59.62-61.39 77.91-43.68 118.05-54.3 43.1-25.38-37.19 10.03-16.53-10.03 74.96-18.89 53.12-43.68 150.52-53.12 10.03 5.9-23.6 8.85-32.46 16.53 61.98-30.69 197.15-23.6 284.51 17.12 101.53 47.22 215.44 187.7 220.17 319.92l5.31 1.18c-2.36 52.53 8.26 113.33-10.62 168.82l12.4-25.38"/><path d="M525.9 846.45l-3.54 17.12c16.53 22.43 29.51 46.04 50.17 63.16-15.35-28.92-26.56-40.73-46.63-80.28m38.37-1.77c-8.85-9.44-13.58-21.25-19.48-32.46 5.31 20.07 16.53 37.19 27.15 54.89l-7.67-22.43m681.75-148.16l-3.54 9.44c-6.49 47.22-21.25 94.44-43.1 138.12 24.2-46.04 40.14-96.21 46.63-147.57M707.11 28.94c16.53-5.9 41.32-3.54 59.03-7.67-23.02 1.77-46.04 2.95-69.06 5.9l10.03 1.77m-588.5 312.83c4.13 36.01-27.15 49.58 7.08 25.97 17.71-40.14-7.67-10.62-7.08-25.97M79.06 507.64c7.67-23.6 9.44-38.37 12.39-51.94-21.84 27.15-10.03 33.05-12.39 51.94"/></g><path d="M1462.81 862.16c0 295.49 157.01 295.49 180.36 295.49 65.22 0 107.09-35.43 124.8-97.42l2.42 93.4c20.13-.81 40.26-3.22 72.46-3.22 11.27 0 20.93 0 28.99.81 8.05 0 16.91.81 26.57 2.42-16.91-33.82-28.99-108.7-28.99-272.95s0-429.15 13.69-511.28c-37.84 17.71-70.05 29.8-141.71 35.43 28.18 30.6 28.18 45.89 28.18 184.38-20.13-6.44-45.1-13.69-87.76-13.69-188.41 1.6-219 165.06-219 286.64m304.34-123.21c-.81.8-.81 169.89-3.22 214.17-2.42 35.43-5.64 111.92-80.52 111.92s-96.62-89.37-103.06-128.02c-7.25-42.67-7.25-78.91-7.25-94.2 0-50.72 3.22-190.82 121.58-190.82 35.43 0 55.56 10.47 71.66 18.52l.8 68.44zm547.51 80.52c0-122.38-24.16-243.16-179.55-243.16-214.17 0-214.17 236.72-214.17 287.44 0 212.56 95.81 297.1 256.04 297.1 71.66 0 106.28-10.47 124.8-16.1-.8-37.84 4.03-62 10.47-94.2-21.74 13.69-50.73 31.4-113.53 31.4-163.45 0-165.86-148.95-165.86-200.48h279.4l2.42-62m-282.61-10.47c.8-86.96 18.52-165.06 93.4-165.06 82.13 0 87.76 90.18 86.15 165.06h-179.55zm322.85 169.9c0 77.3 0 121.58-12.88 155.4 42.67 16.91 96.62 26.57 160.23 26.57 41.06 0 159.42 0 223.83-131.24 30.6-61.19 41.06-142.51 41.06-204.5 0-37.84-4.03-120.77-34.62-173.1-28.99-49.11-76.5-74.08-127.22-74.08-100.65 0-130.44 83.74-145.73 127.22 0-53.14.8-239.94 9.66-335.75-68.44 31.4-110.31 37.04-155.4 41.06 41.06 16.91 41.06 86.15 41.06 311.6v256.85m301.13-114.34c0 97.42-17.71 228.67-139.29 228.67-16.91 0-37.84-3.22-51.53-6.44-2.42-37.84-2.42-103.06-2.42-177.94 0-90.18 9.66-137.68 16.91-160.23 21.74-74.08 71.66-75.68 80.52-75.68 80.52 0 95.81 109.5 95.81 191.63h0zm313.21 289.84c-20.93-3.22-35.43-5.64-66.02-5.64-33.82 0-56.36 2.42-80.51 5.64 10.47-20.13 14.49-29.8 17.71-97.42 4.03-93.4 5.64-343-2.42-395.33-5.64-40.26-14.49-45.89-28.99-56.36 86.15-8.05 110.31-14.49 149.76-33.82-8.05 45.89-9.66 69.24-9.66 139.29-2.42 361.52-3.22 400.16 20.13 443.64m47.5-168.3c0 66.02 20.13 132.05 78.91 160.23 26.57 11.27 52.33 11.27 61.19 11.27 96.62 0 128.82-71.66 148.95-115.14-.8 45.89 0 74.07 3.22 111.11 18.52-.81 37.84-3.22 69.24-3.22 17.71 0 34.62 2.42 52.33 3.22-11.27-17.71-17.71-28.18-20.93-69.24-2.42-39.45-2.42-79.7-2.42-135.27l.8-214.17c0-79.71-20.93-158.62-178.74-158.62-103.86 0-165.06 31.4-194.85 47.5 12.88 23.35 23.35 42.67 32.21 87.76 41.06-35.43 94.2-54.75 148.95-54.75 86.96 0 86.96 57.97 86.96 139.29-20.13-.8-37.04-3.22-65.22-3.22-132.85 1.6-220.61 53.14-220.61 193.24m288.26-128.81c-2.42 66.02-3.22 111.92-20.93 148.95-21.74 47.5-58.78 61.19-86.15 61.19-62.8 0-76.5-52.33-76.5-103.86 0-98.23 87.76-106.28 128.02-106.28h55.57zm604.67 193.24c.81 35.43.81 73.27 16.1 103.87-23.35-2.42-37.04-5.64-79.7-5.64-24.96 0-38.65 2.42-58.78 5.64 4.03-13.69 6.44-18.52 8.05-37.04 3.22-24.16 5.64-104.67 5.64-132.85V871.01c0-49.11 0-120.77-3.22-145.73-2.42-17.71-7.25-66.02-68.44-66.02s-79.7 44.28-86.96 79.7c-8.05 37.04-8.05 76.5-8.05 231.89.8 134.46.8 146.54 11.27 183.58-17.71-2.42-39.45-4.03-71.66-4.03-24.96 0-41.87.81-62.8 4.03 7.25-16.91 11.27-24.96 13.69-83.74 2.42-57.97 6.44-341.39-3.22-408.21-4.83-41.06-16.1-50.72-27.38-61.19 85.35-4.03 111.92-17.71 138.49-31.4v111.13c12.87-32.21 38.64-104.66 144.11-104.66 131.24 0 132.05 95.81 132.85 158.62v315.62" fill="#fff"/><path d="M2978.12,422.54l-86.96,86.96-86.96-86.96,86.96-86.96,86.96,86.96" fill="#d70751"/></svg>