<svg xmlns="http://www.w3.org/2000/svg" width="512.041" height="502.439" viewBox="0 0 135.478 132.937" xmlns:v="https://vecta.io/nano"><path fill="#51a2da" d="M67.775 0C30.367 0 .079 29.732.013 66.439H0v51.43h.013c.017 8.325 6.902 15.068 15.392 15.068h52.377c37.415-.024 67.696-29.752 67.696-66.439C135.478 29.792 105.157.06 67.715.06z"/><path fill="#fff" d="M81.546 27.338c-10.568 0-19.903 7.802-21.196 18.039-.087.857-.112 1.475-.117 2.252l.012 41.855c0 8.029-6.128 13.493-13.784 13.493-7.667 0-13.844-6.009-13.844-13.506.126-8.231 6.843-13.451 14.678-13.678h.042l7.954-.072V64.669l-7.954.059c-14.26-.126-25.58 10.826-25.993 24.749 0 13.539 11.342 24.577 25.113 24.577 12.99 0 23.8-9.952 24.981-22.406.17-4.239.087-9.834.087-9.834.024-2.304-.037-1.476-.012-6.05l9.867-.072c7.634.053 7.549-11.226-.088-11.071l-9.781.071V47.685c.007-4.918 4.756-9.264 10.026-9.264s10.846 2.58 10.846 9.264c0 .955-.019 1.511-.073 1.864-.588 3.1 1.571 6.062 4.752 6.509 3.181.442 6.102-1.811 6.417-4.946.183-1.239.176-2.333.176-3.426 0-11.786-10.74-20.329-22.115-20.329z"/></svg>