<svg xmlns="http://www.w3.org/2000/svg" width="512.063" height="144.009" viewBox="0 0 135.483 38.102" xmlns:v="https://vecta.io/nano"><path fill="#51a2da" d="M19.426 0C8.704 0 .023 8.522.004 19.043H0v14.741h.004c.005 2.386 1.978 4.319 4.412 4.319h15.012c10.724-.007 19.403-8.527 19.403-19.043C38.83 8.539 30.14.017 19.408.017zm33.969 7.689c-4.104 0-6.739 3.059-6.764 5.921v16.594c-.005 2.047 3.173 2.047 3.167 0V19.13h3.257c.762 0 1.412-.541 1.412-1.41s-.697-1.393-1.412-1.393h-3.257v-2.551c0-1.633 1.303-2.995 3.926-2.963.912.012 1.234.228 1.567.427 1.819 1.182 3.57-1.554 1.663-2.6-1.169-.701-2.259-.949-3.562-.949zm34.709.296c-.988-.052-1.715.908-1.563 1.82v7.069c-3.133-2.576-8.233-2.395-11.124.456-2.925 2.557-3.48 7.188-1.353 10.38 1.562 2.411 4.421 4.131 7.367 3.994 1.852-.017 3.687-.802 5.112-1.959-.146.915.575 1.883 1.571 1.825.978.043 1.738-.904 1.588-1.82l-.017-20.389c-.051-.764-.794-1.394-1.571-1.373h-.004zm12.239 6.921c-4.778 0-8.652 3.767-8.653 8.416s3.873 8.419 8.653 8.419 8.654-3.77 8.653-8.419-3.875-8.416-8.653-8.416zm28.26.074c-2.16 0-3.717.629-4.852 1.426-1.721 1.209.131 3.736 1.852 2.526.784-.55 1.365-.843 3.001-.843 2.035.04 3.67.788 3.67 2.28-1.091.677-5.834 1.238-8.38 2.659s-2.413 3.213-2.413 4.376c0 2.551 2.744 4.273 5.121 4.273s3.384-.489 5.707-2.05v.444c-.075 2.143 3.247 2.143 3.171 0v-9.159c.01-3.799-2.769-5.876-6.875-5.935zm-15.756.033c-1.375 0-1.604 1.113-1.596 1.562v13.512c-.038.873.699 1.599 1.622 1.599s1.659-.725 1.622-1.599v-8.243c-.024-3.217 2.646-3.913 3.573-3.913.69 0 1.243.378 1.789.358.811-.03 1.475-.564 1.475-1.5-.024-1.511-1.912-1.725-3.306-1.697s-2.572.447-3.59 1.044c0 0-.213-1.122-1.588-1.122zm-48.669.033c-1.052-.079-2.215.086-3.494.571-3.097 1.174-5.199 4.059-5.208 7.619-.009 3.729 2.652 8.541 8.171 8.577 3.712.024 5.569-1.336 6.57-2.261.665-.578.714-1.582.105-2.215a1.6 1.6 0 0 0-2.263-.033c-.748.689-1.85 1.713-4.973 1.373-1.34-.146-2.779-1.213-3.26-2.029l10.233-4.269a1.53 1.53 0 0 0 .813-2.005c-1.37-2.644-3.535-5.087-6.691-5.326zm36.17 3.012c2.989 0 5.412 2.356 5.413 5.263s-2.422 5.269-5.413 5.269-5.415-2.36-5.413-5.269 2.424-5.263 5.413-5.263zm-19.1.082c2.828-.072 5.354 2.426 5.301 5.174.059 2.75-2.475 5.244-5.301 5.174-2.688.07-5.151-2.162-5.288-4.78-.286-2.697 1.973-5.33 4.74-5.544a5.74 5.74 0 0 1 .549-.025zm-17.859.082c1.539.002 2.991.78 3.729 2.033L58.6 23.823c-.608-2.227 1.888-4.842 3.247-5.33a4.55 4.55 0 0 1 1.542-.271zm69.001 5.21c-.001 1.007.016 1.298-.012 2.304-.007 1.209-.781 1.769-1.592 2.23s-2.46.868-3.414.912c-1.101.036-2.559-.207-2.636-1.488.001-.773.383-1.254 1.01-1.788 1.485-1.092 3.494-1.458 6.646-2.174z"/><path fill="#fff" d="M23.372 7.835c-3.029 0-5.705 2.237-6.075 5.171l-.034.645.004 11.997c0 2.301-1.756 3.867-3.951 3.867s-3.968-1.722-3.968-3.871c.036-2.359 1.961-3.856 4.207-3.921h.012l2.28-.021v-3.167l-2.28.017c-4.087-.036-7.332 3.103-7.45 7.094 0 3.881 3.251 7.045 7.198 7.045 3.723 0 6.821-2.853 7.16-6.422.049-1.215.025-2.818.025-2.818.007-.66-.011-.423-.004-1.734l2.828-.02c2.188.015 2.163-3.218-.025-3.173l-2.803.021V13.67c.002-1.41 1.363-2.655 2.873-2.655s3.109.739 3.109 2.655a4.03 4.03 0 0 1-.021.534c-.169.888.45 1.738 1.362 1.866s1.749-.519 1.839-1.418c.052-.355.05-.669.05-.982 0-3.378-3.078-5.827-6.339-5.827z"/></svg>