<svg xmlns="http://www.w3.org/2000/svg" width="800" height="800" viewBox="0 -2 256 256" preserveAspectRatio="xMidYMid" fill="#b5010f" xmlns:v="https://vecta.io/nano"><path d="M252.723 5.109c13.508 13.501-23.939 72.849-30.269 79.183-6.331 6.321-22.41.505-35.911-12.999-13.508-13.501-19.327-29.584-12.996-35.914S239.219-8.398 252.723 5.11M63.305 19.394C42.683 7.693 13.339-5.322 4.005 4.013c-9.458 9.455 4.034 39.459 15.858 60.118a126.81 126.81 0 0 1 43.442-44.737m168.818 60.242c1.899 6.441 1.557 11.761-1.523 14.835-7.193 7.196-26.624-.464-44.14-17.134-1.223-1.096-2.436-2.233-3.626-3.427-6.334-6.337-11.262-13.081-14.414-19.292-6.135-11.006-7.67-20.726-3.033-25.363 2.527-2.524 6.571-3.213 11.502-2.325 3.216-2.034 7.013-4.299 11.176-6.621-16.929-8.829-36.177-13.817-56.593-13.817C63.753 6.49 8.854 61.38 8.854 129.105c0 67.713 54.9 122.609 122.619 122.609s122.615-54.897 122.615-122.609a122.05 122.05 0 0 0-15.766-60.156c-2.167 3.955-4.274 7.578-6.198 10.687"/></svg>