<svg xmlns="http://www.w3.org/2000/svg" viewBox="0 0 1022.41 360.27" xmlns:v="https://vecta.io/nano"><g fill="#fff"><path d="M349.22 331.73c-10.85 0-20.09-1.65-27.71-4.95-7.2-2.98-13.55-7.68-18.52-13.68-4.81-6.01-8.31-12.96-10.26-20.4a94.63 94.63 0 0 1-3.18-25.12V164.74h16.04v100.72c-.16 7.86.92 15.7 3.18 23.23a44.84 44.84 0 0 0 8.85 16.16 34.59 34.59 0 0 0 13.68 9.44c11.6 4.09 24.25 4.09 35.85 0 5.26-1.98 9.96-5.22 13.68-9.44 4.04-4.72 7.05-10.22 8.84-16.16 2.27-7.53 3.34-15.37 3.18-23.23V164.74h16.04v102.84c.06 8.48-1.01 16.93-3.18 25.12-1.95 7.45-5.45 14.4-10.26 20.4a47.7 47.7 0 0 1-18.52 13.68c-7.63 3.3-16.87 4.95-27.71 4.95zm112.3-118.17c2.67-2.04 6.96-4.2 12.86-6.49 6.69-2.41 13.76-3.57 20.87-3.42 8.07-.15 16.08 1.46 23.47 4.72 6.7 3.04 12.63 7.56 17.34 13.21 4.87 5.95 8.52 12.8 10.73 20.17 2.51 8.3 3.74 16.93 3.66 25.59.14 9.07-1.34 18.1-4.36 26.65-2.66 7.46-6.84 14.28-12.26 20.05-5.3 5.53-11.74 9.83-18.87 12.62-7.79 3-16.07 4.48-24.41 4.36-10.85 0-19.81-.71-26.89-2.12a137.82 137.82 0 0 1-17.45-4.48V147.99l15.33-2.83v68.4zm0 100.25a68.11 68.11 0 0 0 10.5 2.24c6.06.8 12.17 1.15 18.28 1.06 13.21 0 23.82-4.28 31.84-12.85s12.03-20.87 12.03-36.91c.03-6.47-.68-12.92-2.12-19.22-1.24-5.66-3.57-11.02-6.84-15.8-3.2-4.53-7.45-8.21-12.38-10.73-5.11-2.67-11.44-4.01-18.99-4.01-3.49-.01-6.97.34-10.38 1.06-3.13.66-6.21 1.57-9.2 2.71a51.07 51.07 0 0 0-7.43 3.54 52.12 52.12 0 0 0-5.31 3.54v85.39z"/><use href="#B"/><path d="M710.29 210.49c4.56-1.26 10.69-2.67 18.4-4.25a145.18 145.18 0 0 1 28.3-2.36c9.28 0 17.02 1.34 23.23 4.01 5.88 2.42 11.01 6.37 14.86 11.44a46.62 46.62 0 0 1 7.9 17.81c1.63 7.52 2.42 15.19 2.36 22.88v68.17h-15.33v-63.21c.11-7.35-.48-14.7-1.77-21.94a36.5 36.5 0 0 0-5.9-14.62c-2.71-3.74-6.5-6.58-10.85-8.14-4.48-1.65-10.1-2.48-16.86-2.48a129.18 129.18 0 0 0-18.75 1.18c-5.27.79-8.69 1.5-10.26 2.12v107.08h-15.33v-117.7zm144.65-4.24h48.59v12.97h-48.59v64.87a65.99 65.99 0 0 0 1.77 16.86c.85 3.7 2.6 7.14 5.07 10.02a16.09 16.09 0 0 0 8.02 4.72c3.4.82 6.88 1.21 10.38 1.18 6.45 0 11.64-.75 15.57-2.24a67.68 67.68 0 0 0 9.2-4.13l3.77 12.74c-2.2 1.42-6.06 3.03-11.56 4.83-5.79 1.85-11.84 2.77-17.93 2.71-7.55 0-13.88-.98-18.99-2.95-4.85-1.77-9.1-4.88-12.27-8.96a36.66 36.66 0 0 1-6.49-14.98 104.29 104.29 0 0 1-1.89-21.23V170.39l15.33-2.83v38.68z"/><use href="#B" x="348.35"/></g><path d="M0 0h233.93v360.27H0z" fill="#e9500e"/><g fill="#fff"><circle cx="51.02" cy="237.8" r="24.55"/><circle cx="153.26" cy="183.97" r="24.55"/><path d="M106.39 300.98c-17.57-3.72-32.54-15.13-40.77-31.1-6.57 2.98-13.89 3.88-20.99 2.58 9.97 24.64 31.53 42.72 57.54 48.22a80.4 80.4 0 0 0 17.43 1.79c-4.51-5.91-7.02-13.1-7.19-20.53-2.02-.22-4.04-.55-6.02-.98z"/><circle cx="147.73" cy="301.11" r="24.55"/><path d="M181.89 292.1c21.59-27.23 23.21-65.26 4.02-94.24a35.37 35.37 0 0 1-13.81 16.17 60.2 60.2 0 0 1-1.97 59.78c5.75 4.7 9.86 11.11 11.75 18.29zM49.13 202.59l1.87-.05c6.58 0 13.02 1.84 18.62 5.3 10.98-15.86 28.93-25.46 48.21-25.78.4-7.24 3-14.19 7.45-19.91-31.06-2.35-60.7 13.4-76.15 40.44z"/></g><defs ><path id="B" d="M674.06 323.95c-4.56 1.26-10.7 2.68-18.4 4.25-9.33 1.71-18.81 2.5-28.3 2.36-9.12 0-16.75-1.34-22.88-4.01a37.15 37.15 0 0 1-14.86-11.32c-3.95-5.25-6.72-11.28-8.14-17.69a98.36 98.36 0 0 1-2.48-22.88v-68.4h15.33v63.45c-.12 7.36.51 14.71 1.89 21.94 1.26 5.98 3.3 10.81 6.13 14.51a23.88 23.88 0 0 0 10.97 8.02 47.57 47.57 0 0 0 16.39 2.48 130.83 130.83 0 0 0 18.87-1.18c5.34-.79 8.73-1.49 10.14-2.12V206.27h15.33v117.7z"/></defs></svg>