<svg xmlns="http://www.w3.org/2000/svg" width="126.67" height="41" xmlns:v="https://vecta.io/nano"><path d="M116.142 0H9.535L8.44.002l-.919.013c-.666.017-1.339.058-2.004.177S4.226.509 3.617.818a6.44 6.44 0 0 0-1.619 1.179A6.26 6.26 0 0 0 .82 3.618a6.6 6.6 0 0 0-.625 1.903C.074 6.184.033 6.854.016 7.523l-.015.921v1.092 20.929 1.094l.015.922c.017.67.059 1.34.179 2.002.117.67.314 1.298.625 1.904.303.596.7 1.145 1.178 1.614.473.478 1.02.875 1.619 1.179a6.7 6.7 0 0 0 1.901.631c.665.119 1.338.158 2.004.177l.919.011L9.535 40h106.606l1.084-.002.922-.011c.67-.019 1.342-.058 2-.177.67-.121 1.293-.318 1.908-.631.598-.304 1.145-.701 1.617-1.179.477-.47.873-1.019 1.182-1.614.307-.606.506-1.234.619-1.904.123-.662.162-1.332.186-2.002l.004-.922.008-1.094V9.536l-.008-1.092-.004-.921c-.023-.67-.062-1.34-.186-2.002-.113-.67-.312-1.295-.619-1.903-.309-.599-.705-1.147-1.182-1.621a6.44 6.44 0 0 0-1.617-1.179c-.615-.31-1.238-.51-1.908-.627-.658-.119-1.33-.16-2-.177l-.922-.013L116.142 0h0z"/><path fill="#fff" d="M8.445 39.125c-.305 0-.602-.004-.904-.011-.559-.016-1.222-.047-1.869-.163-.61-.11-1.153-.29-1.657-.548-.521-.265-.99-.606-1.397-1.017a5.32 5.32 0 0 1-1.021-1.396c-.259-.505-.437-1.047-.543-1.657-.122-.673-.153-1.355-.166-1.875l-.015-.913V8.444l.015-.895c.013-.524.044-1.206.166-1.872.107-.614.284-1.155.543-1.662.266-.524.606-.994 1.015-1.398.414-.414.884-.757 1.402-1.022s1.055-.439 1.653-.544C6.341.931 7.024.9 7.543.887l.902-.012h108.775l.913.013c.513.013 1.195.043 1.858.163a5.94 5.94 0 0 1 1.671.548c.513.263.982.605 1.392 1.016s.752.878 1.023 1.404c.258.511.434 1.053.535 1.649.116.631.152 1.279.174 1.887l.003.89.008 1.092v20.929l-.008 1.075-.004.93c-.021.589-.057 1.236-.171 1.854a5.74 5.74 0 0 1-.54 1.67 5.48 5.48 0 0 1-1.016 1.386c-.413.418-.882.759-1.399 1.023a5.86 5.86 0 0 1-1.668.55c-.641.116-1.304.147-1.869.163l-.897.011-1.084.002-107.696-.002z"/><path d="M24.997 19.889c-.026-2.861 2.342-4.253 2.451-4.318-1.341-1.956-3.42-2.223-4.15-2.244-1.746-.183-3.439 1.045-4.329 1.045-.907 0-2.277-1.027-3.752-.996-1.899.029-3.677 1.129-4.651 2.837-2.011 3.482-.511 8.599 1.416 11.414.964 1.378 2.09 2.918 3.564 2.863 1.442-.06 1.981-.92 3.722-.92 1.725 0 2.23.92 3.734.885 1.548-.025 2.523-1.384 3.453-2.776 1.114-1.58 1.561-3.136 1.579-3.216-.036-.012-3.006-1.145-3.036-4.575zm-2.84-8.412c.775-.97 1.306-2.29 1.159-3.63-1.123.05-2.527.776-3.336 1.726-.715.836-1.354 2.207-1.189 3.495 1.261.094 2.556-.636 3.366-1.591zM42.302 27.14h-4.733l-1.137 3.356h-2.005l4.483-12.418h2.083l4.483 12.418h-2.039l-1.136-3.356zm-4.243-1.549h3.752l-1.85-5.447h-.052l-1.851 5.447zm17.101.379c0 2.813-1.506 4.621-3.778 4.621-1.29 0-2.314-.577-2.849-1.584h-.043v4.484h-1.858V21.442h1.799v1.506h.034c.517-.972 1.618-1.601 2.883-1.601 2.298 0 3.812 1.816 3.812 4.622zm-1.91 0c0-1.833-.947-3.038-2.393-3.038-1.42 0-2.375 1.23-2.375 3.038 0 1.824.955 3.046 2.375 3.046 1.445 0 2.393-1.196 2.393-3.046zm11.875 0c0 2.813-1.506 4.621-3.779 4.621-1.29 0-2.314-.577-2.849-1.584h-.043v4.484h-1.858V21.442h1.799v1.506h.034c.517-.972 1.618-1.601 2.883-1.601 2.298 0 3.813 1.816 3.813 4.622zm-1.911 0c0-1.833-.947-3.038-2.393-3.038-1.42 0-2.375 1.23-2.375 3.038 0 1.824.955 3.046 2.375 3.046 1.445 0 2.393-1.196 2.393-3.046zm8.496 1.066c.138 1.231 1.334 2.04 2.969 2.04 1.566 0 2.693-.809 2.693-1.919 0-.964-.68-1.541-2.289-1.937l-1.609-.388c-2.28-.551-3.339-1.617-3.339-3.348 0-2.143 1.867-3.614 4.518-3.614 2.625 0 4.424 1.472 4.484 3.614h-1.876c-.112-1.239-1.137-1.987-2.634-1.987s-2.521.757-2.521 1.858c0 .878.654 1.395 2.255 1.79l1.368.336c2.548.603 3.605 1.626 3.605 3.442 0 2.323-1.85 3.778-4.793 3.778-2.754 0-4.613-1.421-4.733-3.667h1.902zM83.347 19.3v2.143h1.722v1.472h-1.722v4.991c0 .775.345 1.137 1.102 1.137A5.81 5.81 0 0 0 85.06 29v1.463c-.206.052-.619.086-1.032.086-1.833 0-2.548-.688-2.548-2.444v-5.189h-1.316v-1.472h1.316V19.3h1.867zm2.717 6.67c0-2.849 1.678-4.639 4.294-4.639 2.625 0 4.295 1.79 4.295 4.639 0 2.856-1.661 4.639-4.295 4.639s-4.294-1.782-4.294-4.639zm6.695 0c0-1.954-.896-3.107-2.401-3.107s-2.401 1.162-2.401 3.107c0 1.962.896 3.106 2.401 3.106s2.401-1.145 2.401-3.106zm3.427-4.528h1.772v1.541h.043c.284-1.024 1.11-1.636 2.178-1.636.267 0 .49.035.637.069v1.738c-.146-.061-.474-.112-.835-.112-1.196 0-1.937.81-1.937 2.083v5.37h-1.858v-9.054zm13.198 6.395c-.25 1.644-1.851 2.771-3.898 2.771-2.634 0-4.269-1.765-4.269-4.596 0-2.84 1.644-4.682 4.19-4.682 2.505 0 4.08 1.721 4.08 4.466v.637h-6.395v.112c0 1.549.973 2.564 2.436 2.564 1.032 0 1.842-.49 2.091-1.273h1.765zm-6.282-2.702h4.526c-.043-1.386-.93-2.298-2.221-2.298-1.282 0-2.211.93-2.306 2.298zM35.671 14.702V8.735h2.398c1.121 0 1.795.57 1.795 1.488 0 .625-.459 1.183-1.046 1.282v.07c.806.083 1.344.657 1.344 1.435 0 1.05-.765 1.691-2.039 1.691h-2.452zm.927-3.44h1.1c.819 0 1.245-.302 1.245-.868 0-.55-.401-.873-1.088-.873h-1.257v1.741zm1.34 2.655c.835 0 1.277-.339 1.277-.972 0-.625-.459-.951-1.331-.951h-1.286v1.923h1.34z"/><use href="#B"/><path d="M48.072 10.112c1.013 0 1.675.471 1.762 1.265h-.853c-.082-.331-.405-.542-.909-.542-.496 0-.873.235-.873.587 0 .269.228.438.716.55l.748.173c.856.199 1.258.567 1.258 1.229 0 .848-.79 1.414-1.865 1.414s-1.77-.484-1.849-1.282h.89c.111.347.442.562.979.562.554 0 .947-.248.947-.608 0-.269-.211-.442-.662-.55l-.785-.182c-.856-.203-1.253-.587-1.253-1.257 0-.798.731-1.36 1.749-1.36zm4.216-1.034v1.142h.976v.749h-.976v2.315c0 .472.194.678.637.678a2.79 2.79 0 0 0 .339-.021v.74a2.96 2.96 0 0 1-.483.045c-.988 0-1.382-.348-1.382-1.216v-2.543h-.715v-.749h.715v-1.14h.89z"/><use href="#B" x="13.015"/><path d="M59.482 8.441h.889v6.261h-.889V8.441zm6.982 6.261h-.955l-1.625-4.503h.95l1.122 3.552h.07l1.116-3.552h.943l-1.621 4.503z"/><use href="#C"/><use href="#C" x="5.216"/><path d="M79.371 10.199h.855v.69h.066c.128-.442.628-.765 1.216-.765a1.87 1.87 0 0 1 .396.037v.877c-.074-.025-.339-.054-.496-.054-.674 0-1.149.426-1.149 1.059v2.659h-.889v-4.503zm7.314 4.503h-.856v-.715h-.07c-.219.513-.678.802-1.36.802-.996 0-1.551-.608-1.551-1.667v-2.923h.89v2.692c0 .728.293 1.075.946 1.075.72 0 1.112-.426 1.112-1.133v-2.634h.89v4.503z"/><use href="#D"/><path d="M91.639 9.078v1.142h.976v.749h-.976v2.315c0 .472.194.678.637.678.137 0 .215-.008.339-.021v.74c-.145.024-.311.045-.483.045-.988 0-1.382-.348-1.382-1.216v-2.543h-.715v-.749h.715V9.078h.89z"/><use href="#D" x="8.129"/><path d="M98.564 10.199h.855v.715h.066c.219-.5.666-.802 1.344-.802 1.005 0 1.559.604 1.559 1.675v2.915h-.889V12.01c0-.724-.314-1.083-.972-1.083s-1.075.438-1.075 1.141v2.634h-.889v-4.503zm7.418 2.249c0-1.423.731-2.324 1.869-2.324.616 0 1.137.293 1.381.79h.066V8.441h.889v6.261h-.852v-.711h-.07c-.269.492-.794.786-1.414.786-1.146 0-1.869-.901-1.869-2.328zm.918 0c0 .955.45 1.53 1.203 1.53s1.212-.583 1.212-1.526-.468-1.53-1.212-1.53-1.203.579-1.203 1.526z"/><use href="#B" x="70.274"/><defs ><path id="B" d="M45.179 13.486c-.202.807-.922 1.303-1.951 1.303-1.29 0-2.08-.885-2.08-2.324s.807-2.353 2.076-2.353c1.253 0 2.009.856 2.009 2.27v.31h-3.18v.05c.029.79.488 1.29 1.199 1.29.538 0 .906-.194 1.071-.546h.855zm-3.126-1.451h2.274c-.021-.707-.45-1.167-1.108-1.167s-1.116.463-1.166 1.167z"/><path id="C" d="M68.716 12.448c0-1.452.811-2.336 2.125-2.336s2.122.885 2.122 2.336c0 1.459-.807 2.34-2.122 2.34s-2.125-.881-2.125-2.34zm3.333 0c0-.976-.438-1.547-1.208-1.547s-1.207.571-1.207 1.547c0 .984.435 1.55 1.207 1.55s1.208-.57 1.208-1.55z"/><path id="D" d="M87.984 8.867c0-.311.244-.546.575-.546s.574.235.574.546-.244.542-.574.542-.575-.236-.575-.542zm.132 1.332h.886v4.503h-.886v-4.503z"/></defs></svg>